<svg xmlns="http://www.w3.org/2000/svg" xmlns:xlink="http://www.w3.org/1999/xlink" width="500" zoomAndPan="magnify" viewBox="0 0 375 374.999991" height="500" preserveAspectRatio="xMidYMid meet" version="1.0"><defs><g/><clipPath id="7fac037848"><path d="M 0 55 L 275 55 L 275 320.90625 L 0 320.90625 Z M 0 55 " clip-rule="nonzero"/></clipPath></defs><g fill="#000000" fill-opacity="1"><g transform="translate(198.286647, 174.663445)"><g><path d="M 10.28125 0 L 8.84375 0 L 7.796875 -3.140625 L 2.921875 -3.140625 L 1.859375 0 L 0.453125 0 L 4.4375 -11.421875 L 6.296875 -11.421875 Z M 5.265625 -10.046875 L 3.296875 -4.265625 L 7.40625 -4.265625 L 5.453125 -10.046875 Z M 5.265625 -10.046875 "/></g></g></g><path fill="#0ea5e9" d="M 107.160156 251.496094 C 107.160156 252.222656 107.230469 252.945312 107.371094 253.65625 C 107.515625 254.371094 107.722656 255.0625 108 255.734375 C 108.28125 256.402344 108.621094 257.042969 109.023438 257.644531 C 109.429688 258.25 109.886719 258.808594 110.402344 259.324219 C 110.914062 259.835938 111.472656 260.296875 112.078125 260.699219 C 112.679688 261.101562 113.320312 261.445312 113.992188 261.722656 C 114.660156 262 115.355469 262.210938 116.066406 262.351562 C 116.777344 262.492188 117.5 262.5625 118.226562 262.5625 C 118.953125 262.5625 119.671875 262.492188 120.382812 262.351562 C 121.097656 262.210938 121.789062 262 122.460938 261.722656 C 123.132812 261.445312 123.769531 261.101562 124.375 260.699219 C 124.976562 260.296875 125.535156 259.835938 126.050781 259.324219 C 126.5625 258.808594 127.023438 258.25 127.425781 257.644531 C 127.832031 257.042969 128.171875 256.402344 128.449219 255.734375 C 128.726562 255.0625 128.9375 254.371094 129.078125 253.65625 C 129.222656 252.945312 129.292969 252.222656 129.292969 251.496094 C 129.292969 250.769531 129.222656 250.050781 129.078125 249.339844 C 128.9375 248.625 128.726562 247.933594 128.449219 247.261719 C 128.171875 246.589844 127.832031 245.953125 127.425781 245.347656 C 127.023438 244.746094 126.5625 244.1875 126.050781 243.671875 C 125.535156 243.160156 124.976562 242.699219 124.375 242.296875 C 123.769531 241.894531 123.132812 241.550781 122.460938 241.273438 C 121.789062 240.996094 121.097656 240.785156 120.382812 240.644531 C 119.671875 240.503906 118.953125 240.429688 118.226562 240.429688 C 117.5 240.429688 116.777344 240.503906 116.066406 240.644531 C 115.355469 240.785156 114.660156 240.996094 113.992188 241.273438 C 113.320312 241.550781 112.679688 241.894531 112.078125 242.296875 C 111.472656 242.699219 110.914062 243.160156 110.402344 243.671875 C 109.886719 244.1875 109.429688 244.746094 109.023438 245.347656 C 108.621094 245.953125 108.28125 246.589844 108 247.261719 C 107.722656 247.933594 107.515625 248.625 107.371094 249.339844 C 107.230469 250.050781 107.160156 250.769531 107.160156 251.496094 Z M 107.160156 251.496094 " fill-opacity="1" fill-rule="nonzero"/><g clip-path="url(#7fac037848)"><path fill="#0ea5e9" d="M 1.570312 157.765625 C 2.539062 156.792969 3.878906 156.195312 5.355469 156.195312 L 55.164062 156.195312 L 55.164062 136.039062 L 35.5 136.039062 C 32.542969 136.039062 30.144531 133.640625 30.144531 130.683594 C 30.144531 129.207031 30.742188 127.867188 31.710938 126.898438 C 32.679688 125.929688 34.019531 125.328125 35.496094 125.328125 L 55.164062 125.328125 L 55.164062 111.496094 L 20.753906 111.496094 C 17.796875 111.496094 15.398438 109.101562 15.398438 106.140625 C 15.398438 104.664062 16 103.324219 16.96875 102.355469 C 17.9375 101.386719 19.273438 100.789062 20.753906 100.789062 L 133.542969 100.789062 C 134.324219 97.128906 135.246094 93.644531 136.300781 90.347656 L 71.8125 90.347656 C 68.855469 90.347656 66.457031 87.949219 66.457031 84.992188 C 66.457031 83.515625 67.058594 82.175781 68.027344 81.207031 C 68.996094 80.238281 70.335938 79.640625 71.8125 79.640625 L 140.523438 79.640625 C 143.105469 74.285156 146.15625 69.691406 149.652344 65.980469 L 72.632812 65.980469 C 69.675781 65.980469 67.277344 63.585938 67.277344 60.625 C 67.277344 59.148438 67.878906 57.808594 68.847656 56.839844 C 69.816406 55.871094 71.15625 55.273438 72.632812 55.273438 L 171.035156 55.273438 L 171.035156 55.359375 C 190.277344 53.960938 212.023438 70.109375 230.675781 97.367188 C 216.632812 80.253906 201.496094 71.519531 188.574219 75.203125 C 162.710938 82.582031 155.550781 136.953125 172.578125 196.652344 C 189.605469 256.347656 224.375 298.761719 250.238281 291.386719 C 262.816406 287.796875 270.972656 273.089844 274.074219 252.058594 L 274.226562 252.058594 C 272.300781 287.792969 260.289062 314.046875 239.949219 319.847656 C 237.421875 320.566406 234.839844 320.949219 232.210938 321.011719 L 232.210938 321.023438 L 157.707031 321.023438 C 154.75 321.023438 152.351562 318.628906 152.351562 315.671875 C 152.351562 314.191406 152.953125 312.851562 153.921875 311.882812 C 154.890625 310.914062 156.230469 310.316406 157.707031 310.316406 L 203.1875 310.316406 C 198.328125 306.785156 193.480469 302.4375 188.734375 297.359375 L 105.828125 297.359375 C 102.871094 297.359375 100.472656 294.960938 100.472656 292.003906 C 100.472656 290.527344 101.070312 289.1875 102.039062 288.21875 C 103.011719 287.25 104.347656 286.652344 105.824219 286.652344 L 179.683594 286.652344 C 172.015625 276.667969 164.75 264.8125 158.246094 251.5 L 148.011719 251.5 C 148.011719 267.953125 134.671875 281.292969 118.222656 281.292969 C 101.769531 281.292969 88.429688 267.953125 88.429688 251.5 L 55.160156 251.5 L 55.160156 208.492188 L 141.644531 208.492188 C 141.367188 207.566406 141.097656 206.636719 140.832031 205.703125 C 140.394531 204.175781 139.976562 202.644531 139.566406 201.121094 L 31.859375 201.121094 C 28.902344 201.121094 26.507812 198.722656 26.507812 195.765625 C 26.507812 194.289062 27.105469 192.949219 28.074219 191.980469 C 29.042969 191.011719 30.382812 190.414062 31.859375 190.414062 L 55.160156 190.414062 L 55.160156 166.90625 L 5.351562 166.90625 C 2.394531 166.90625 -0.00390625 164.511719 -0.00390625 161.550781 C -0.00390625 160.074219 0.597656 158.734375 1.566406 157.765625 Z M 118.226562 231.398438 C 107.125 231.398438 98.128906 240.398438 98.128906 251.496094 C 98.128906 257.046875 100.378906 262.070312 104.015625 265.707031 C 107.652344 269.347656 112.675781 271.59375 118.226562 271.59375 C 129.324219 271.59375 138.320312 262.597656 138.320312 251.496094 C 138.320312 240.398438 129.324219 231.398438 118.226562 231.398438 Z M 118.226562 231.398438 " fill-opacity="1" fill-rule="nonzero"/></g><path fill="#9333ea" d="M 295.542969 251.496094 C 295.542969 252.222656 295.613281 252.945312 295.753906 253.65625 C 295.894531 254.371094 296.105469 255.0625 296.382812 255.734375 C 296.660156 256.402344 297.003906 257.042969 297.40625 257.644531 C 297.808594 258.25 298.269531 258.808594 298.78125 259.324219 C 299.296875 259.835938 299.855469 260.296875 300.460938 260.699219 C 301.0625 261.101562 301.703125 261.445312 302.371094 261.722656 C 303.042969 262 303.734375 262.210938 304.449219 262.351562 C 305.160156 262.492188 305.878906 262.5625 306.605469 262.5625 C 307.332031 262.5625 308.054688 262.492188 308.765625 262.351562 C 309.480469 262.210938 310.171875 262 310.84375 261.722656 C 311.511719 261.445312 312.152344 261.101562 312.753906 260.699219 C 313.359375 260.296875 313.917969 259.835938 314.433594 259.324219 C 314.945312 258.808594 315.40625 258.25 315.808594 257.644531 C 316.210938 257.042969 316.554688 256.402344 316.832031 255.734375 C 317.109375 255.0625 317.320312 254.371094 317.460938 253.65625 C 317.601562 252.945312 317.671875 252.222656 317.671875 251.496094 C 317.671875 250.769531 317.601562 250.050781 317.460938 249.339844 C 317.320312 248.625 317.109375 247.933594 316.832031 247.261719 C 316.554688 246.589844 316.210938 245.953125 315.808594 245.347656 C 315.40625 244.746094 314.945312 244.1875 314.433594 243.671875 C 313.917969 243.160156 313.359375 242.699219 312.753906 242.296875 C 312.152344 241.894531 311.511719 241.550781 310.84375 241.273438 C 310.171875 240.996094 309.480469 240.785156 308.765625 240.644531 C 308.054688 240.503906 307.332031 240.429688 306.605469 240.429688 C 305.878906 240.429688 305.160156 240.503906 304.449219 240.644531 C 303.734375 240.785156 303.042969 240.996094 302.371094 241.273438 C 301.703125 241.550781 301.0625 241.894531 300.460938 242.296875 C 299.855469 242.699219 299.296875 243.160156 298.78125 243.671875 C 298.269531 244.1875 297.808594 244.746094 297.40625 245.347656 C 297.003906 245.953125 296.660156 246.589844 296.382812 247.261719 C 296.105469 247.933594 295.894531 248.625 295.753906 249.339844 C 295.613281 250.050781 295.542969 250.769531 295.542969 251.496094 Z M 295.542969 251.496094 " fill-opacity="1" fill-rule="nonzero"/><path fill="#9333ea" d="M 185.371094 196.648438 C 174.675781 159.152344 173.523438 123.757812 180.554688 100.789062 L 259.347656 100.789062 L 259.347656 201.121094 L 186.6875 201.121094 C 186.238281 199.644531 185.796875 198.148438 185.371094 196.648438 Z M 185.371094 196.648438 " fill-opacity="1" fill-rule="nonzero"/><path fill="#9333ea" d="M 189.054688 208.492188 L 267.703125 208.492188 L 267.703125 119.625 L 324.539062 119.625 C 338.863281 119.625 351.671875 128.550781 356.636719 141.988281 L 374.996094 191.703125 L 374.996094 245.121094 C 374.996094 248.640625 372.140625 251.496094 368.621094 251.496094 L 336.398438 251.496094 C 336.398438 267.953125 323.058594 281.289062 306.605469 281.289062 C 290.15625 281.289062 276.816406 267.949219 276.816406 251.496094 L 208.574219 251.496094 C 201.199219 239.195312 194.492188 224.617188 189.054688 208.492188 Z M 367.023438 192.417969 L 347.082031 143.539062 C 343.910156 135.765625 336.351562 130.683594 327.953125 130.683594 L 320.644531 130.683594 L 320.644531 176.753906 Z M 292.394531 265.707031 C 296.03125 269.347656 301.054688 271.59375 306.605469 271.59375 C 317.703125 271.59375 326.703125 262.597656 326.703125 251.496094 C 326.703125 240.398438 317.703125 231.398438 306.605469 231.398438 C 295.507812 231.398438 286.507812 240.398438 286.507812 251.496094 C 286.507812 257.046875 288.757812 262.070312 292.394531 265.707031 Z M 292.394531 265.707031 " fill-opacity="1" fill-rule="nonzero"/></svg>